<?xml version="1.0" encoding="UTF-8" standalone="no"?>
<svg
   version="1.1"
   width="1008"
   height="826.48242"
   viewBox="0 0 1008 826.48242"
   id="svg1"
   xmlns="http://www.w3.org/2000/svg"
   xmlns:svg="http://www.w3.org/2000/svg">
  <g
     id="logo"
     style="fill:#f07b05"
     transform="translate(-2.5,-5.6919642)">
    <path
       id="wings"
       d="m 14,13.999721 v 74 L 14.75,162.00363 93,233.27316 v 100.97656 l 62.5,58.25 0.57227,96.19141 L 518,840.48214 879.92773,488.69894 880.5,392.49972 943,334.24972 V 233.27316 L 1021.25,162.00363 1022,13.999721 636,366.24777 v 104.27734 l -118,108.47461 -118,-108.5 V 366.24777 Z M 34.001953,59.314174 C 149.33452,164.56081 264.66744,269.80777 380,375.05441 v 104.23437 c 46.00064,42.29218 91.99964,84.58643 138,126.87891 46.00009,-42.28432 91.99952,-84.56963 138,-126.85352 V 375.05441 C 771.25509,269.87873 886.51054,164.70274 1001.7656,59.527065 c -0.1588,31.196584 -0.3177,62.393265 -0.4765,93.589845 -26.09614,23.77692 -52.19413,47.55193 -78.2891,71.33008 v 101.11133 c -20.81379,19.39711 -41.62759,38.79431 -62.44141,58.1914 -0.19224,32.151 -0.38126,64.30212 -0.57226,96.45313 C 745.991,590.99897 631.99533,701.79541 518,812.59152 404.00467,701.7928 290.009,590.99375 176.01367,480.19503 c -0.191,-32.1484 -0.38002,-64.29692 -0.57226,-96.44531 C 154.62759,364.35263 133.81379,344.95543 113,325.55832 V 224.44699 C 86.886884,200.65572 60.770568,176.8678 34.65625,153.07785 34.372558,125.1833 34.034349,97.288633 34.005859,69.392299 Z"
       transform="translate(-11.5,-8.3077568)" />
    <path
       id="head"
       d="M 440.05078,331.46847 439,395.39621 v 63.27734 L 517.5957,530.85714 597,458.67355 V 395.39621 L 595.94922,331.46847 518,397.74972 Z m 136.58984,42.66016 c 0.34748,25.22426 0.36038,50.45154 0.35938,75.67773 -19.78579,17.98565 -39.57163,35.97137 -59.35742,53.95703 L 459,449.88449 c -0.0446,-25.25097 -0.0187,-50.50334 0.36328,-75.75196 13.66794,11.62303 27.33597,23.24612 41.00391,34.86914 3.50826,2.73258 6.52259,6.20727 10.63476,8.07813 5.77537,2.58321 12.75902,1.32116 17.77539,-2.34961 11.09661,-9.23362 22.04026,-18.65143 33.04493,-27.99414 4.93944,-4.20247 9.87891,-8.40495 14.81835,-12.60742 z"
       transform="translate(-11.5,-8.3077568)" />
  </g>
</svg>
